<svg width="39" height="39" viewBox="0 0 39 39" fill="none" xmlns="http://www.w3.org/2000/svg">
<g clip-path="url(#clip0)">
<path d="M28.5561 26.832C31.0066 23.985 32.5 20.2914 32.5 16.25C32.5 7.28975 25.2103 0 16.25 0C7.28975 0 0 7.28975 0 16.25C0 25.2103 7.28975 32.5 16.25 32.5C20.2914 32.5 23.985 31.0066 26.832 28.5561L36.92 38.6441C37.1573 38.8814 37.4693 39.0016 37.7813 39.0016C38.0933 39.0016 38.4053 38.883 38.6425 38.6441C39.1186 38.168 39.1186 37.3961 38.6425 36.92L28.5561 26.832ZM2.4375 16.25C2.4375 8.63363 8.63363 2.4375 16.25 2.4375C23.8664 2.4375 30.0625 8.63363 30.0625 16.25C30.0625 23.8664 23.8664 30.0625 16.25 30.0625C8.63363 30.0625 2.4375 23.8664 2.4375 16.25Z" fill="#20558B"/>
<path d="M16.2501 14.625C18.9378 14.625 21.1251 12.4377 21.1251 9.75C21.1251 7.06225 18.9378 4.875 16.2501 4.875C13.5623 4.875 11.3751 7.06225 11.3751 9.75C11.3751 12.4377 13.5623 14.625 16.2501 14.625ZM16.2501 7.3125C17.5939 7.3125 18.6876 8.40613 18.6876 9.75C18.6876 11.0939 17.5939 12.1875 16.2501 12.1875C14.9062 12.1875 13.8126 11.0939 13.8126 9.75C13.8126 8.40613 14.9062 7.3125 16.2501 7.3125Z" fill="#20558B"/>
<path d="M19.9062 16.25H12.5937C10.1286 16.25 8.12494 18.2536 8.12494 20.7187V23.1562C8.12494 23.829 8.67094 24.375 9.34369 24.375C10.0164 24.375 10.5624 23.829 10.5624 23.1562V20.7187C10.5624 19.5991 11.4741 18.6875 12.5937 18.6875H19.9062C21.0258 18.6875 21.9374 19.5991 21.9374 20.7187V23.1562C21.9374 23.829 22.4834 24.375 23.1562 24.375C23.8289 24.375 24.3749 23.829 24.3749 23.1562V20.7187C24.3749 18.2536 22.3713 16.25 19.9062 16.25Z" fill="#20558B"/>
</g>
<defs>
<clipPath id="clip0">
<rect width="39" height="39" fill="white"/>
</clipPath>
</defs>
</svg>
